<svg width="22" height="22" viewBox="0 0 22 22" fill="none" xmlns="http://www.w3.org/2000/svg">
<path d="M12.276 4.72111C12.276 4.3024 12.1096 3.90084 11.8136 3.60477C11.5175 3.30869 11.1159 3.14236 10.6972 3.14236C10.2785 3.14236 9.87695 3.30869 9.58087 3.60477C9.2848 3.90084 9.11847 4.3024 9.11847 4.72111H8.06597C8.06597 4.02326 8.34319 3.35399 8.83664 2.86054C9.3301 2.36708 9.99937 2.08986 10.6972 2.08986C11.3951 2.08986 12.0643 2.36708 12.5578 2.86054C13.0512 3.35399 13.3285 4.02326 13.3285 4.72111H18.0647C18.2043 4.72111 18.3381 4.77656 18.4368 4.87525C18.5355 4.97394 18.591 5.10779 18.591 5.24736C18.591 5.38693 18.5355 5.52078 18.4368 5.61948C18.3381 5.71817 18.2043 5.77361 18.0647 5.77361H17.4816L16.1176 17.5932C16.0582 18.1062 15.8123 18.5794 15.4267 18.9229C15.0411 19.2664 14.5427 19.4562 14.0263 19.4561H7.36816C6.85175 19.4562 6.35333 19.2664 5.96772 18.9229C5.58211 18.5794 5.33623 18.1062 5.27684 17.5932L3.91175 5.77361H3.32972C3.20655 5.77365 3.08727 5.73049 2.99264 5.65164C2.89802 5.57279 2.83406 5.46324 2.81189 5.34209L2.80347 5.24736C2.80347 5.10779 2.85891 4.97394 2.9576 4.87525C3.05629 4.77656 3.19015 4.72111 3.32972 4.72111H12.276ZM16.4207 5.77361H4.97267L6.32197 17.4721C6.35168 17.7287 6.4747 17.9654 6.66761 18.1372C6.86052 18.309 7.10986 18.4038 7.36816 18.4036H14.0263C14.2844 18.4035 14.5335 18.3086 14.7262 18.1368C14.9189 17.9651 15.0417 17.7286 15.0714 17.4721L16.4207 5.77361ZM9.11847 8.40486C9.37633 8.40486 9.59209 8.568 9.6363 8.78271L9.64472 8.86586V15.3124C9.64472 15.5661 9.40896 15.7724 9.11847 15.7724C8.8606 15.7724 8.64484 15.6092 8.60064 15.3945L8.59222 15.3114V8.86691C8.59222 8.6122 8.82798 8.40591 9.11847 8.40591V8.40486ZM12.276 8.40486C12.5338 8.40486 12.7496 8.568 12.7938 8.78271L12.8022 8.86586V15.3124C12.8022 15.5661 12.5665 15.7724 12.276 15.7724C12.0181 15.7724 11.8023 15.6092 11.7581 15.3945L11.7497 15.3114V8.86691C11.7497 8.6122 11.9855 8.40591 12.276 8.40591V8.40486Z" fill="#F25F4C"/>
</svg>
